PathFileType	4	(X/Y/Z)	Patient4_TMGait_0pt8_01_left_08.trc.trc
DataRate	CameraRate	NumFrames	NumMarkers	Units	OrigDataRate	OrigDataStartFrame	OrigNumFrames
89.171974522293	89.171974522293	6	33	mm	89.171974522293	36	       141
Frame#	Time	Sacral			L.Shoulder			Chest			R.Shoulder			Neck			R.ASIS			L.ASIS			R.Thigh.Superior			R.Thigh.Lateral			R.Thigh.Inferior			R.Patella			L.Thigh.Superior			L.Thigh.Lateral			L.Thigh.Inferior			L.Patella			L.Shank.Superior			L.Shank.Lateral			L.Shank.Inferior			R.Shank.Superior			R.Shank.Lateral			R.Shank.Inferior			R.Heel			R.Midfoot.Superior			R.Midfoot.Lateral			R.Toe			L.Heel			L.Midfoot.Lateral			L.Midfoot.Superior			L.Toe			L.Elbow			L.Wrist			R.Elbow			R.Wrist			
		X1	Y1	Z1	X2	Y2	Z2	X3	Y3	Z3	X4	Y4	Z4	X5	Y5	Z5	X6	Y6	Z6	X7	Y7	Z7	X8	Y8	Z8	X9	Y9	Z9	X10	Y10	Z10	X11	Y11	Z11	X12	Y12	Z12	X13	Y13	Z13	X14	Y14	Z14	X15	Y15	Z15	X16	Y16	Z16	X17	Y17	Z17	X18	Y18	Z18	X19	Y19	Z19	X20	Y20	Z20	X21	Y21	Z21	X22	Y22	Z22	X23	Y23	Z23	X24	Y24	Z24	X25	Y25	Z25	X26	Y26	Z26	X27	Y27	Z27	X28	Y28	Z28	X29	Y29	Z29	X30	Y30	Z30	X31	Y31	Z31	X32	Y32	Z32	X33	Y33	Z33	

36	8.552500000000	857.969460584688	1005.188488377696	489.624360993692	1028.109570388662	1422.343531194690	299.117570621451	1140.340349786934	1355.055958703363	455.046564890991	1070.122964095306	1436.782864971748	631.238562067277	1028.633195105397	1487.342858635290	454.878620437737	1080.862825106066	932.846414376711	604.810457385213	1069.364775074243	949.510239545140	330.902972029020	1090.020279102958	720.909836850848	586.028481249381	990.207741810485	623.118997898260	645.900944901104	1062.762518832975	555.111267764781	573.694252098987	1041.016889319267	451.173316703726	589.517484615265	1140.797088280457	765.089849947969	365.836205469595	1075.733203492774	636.038097963054	299.885238742935	1174.005210603064	573.123287640520	362.394085193315	1186.654739482283	503.253457127204	368.795699368007	1168.177474221636	428.269366480822	360.961441061287	1092.388108235359	303.395924421090	312.837320053133	1162.151266213896	199.868854423540	380.553224480708	966.731233706535	385.867136359544	592.294167840239	849.073195287130	336.402726120430	651.416328578277	842.142786265007	229.018210859937	595.869422751371	644.091514821872	137.757185843525	565.584667001511	822.145833985866	115.491841393077	603.079130427575	714.843806161140	88.354506523407	634.664415128751	906.538667592751	32.404577531148	620.310239630798	1053.506303702422	37.969916486014	427.126000250930	1123.773768431021	36.198653528734	342.914581829156	1205.779099625431	98.848027782059	365.979196544830	1333.598058713955	51.575065575590	332.497554830022	890.298791189888	1094.558181425057	215.834994816957	833.445555623021	841.794922655281	241.751929031335	1187.294854246117	1124.601660410411	760.310972910775	1388.445317746973	1246.910314617869	684.202708863490	
37	8.563714285714	857.210277684370	1006.624529324634	486.786127201805	1029.004009821489	1423.812526964624	296.788884613177	1140.377833795223	1356.552984798610	453.295818353777	1069.243482102416	1438.461495607727	629.055055545036	1028.577676704511	1488.815549338602	452.424042959549	1080.101507110909	934.355506553519	602.342320761271	1069.211594704485	951.187118629777	328.658420545629	1095.137677765450	723.561611435922	583.649252666925	998.910682779575	623.199887644245	644.091208096946	1073.795202759689	556.673319929207	572.063447550968	1053.476040124714	450.885520185671	588.970695543427	1139.526895654544	764.663855026708	361.885861542759	1071.317177830399	636.151625852146	298.270402186686	1169.084609766517	572.237129815630	360.449807579485	1180.854505921176	502.745160860947	367.857783810844	1162.051814017311	427.928769759016	360.082214771831	1085.565656644552	303.510195670908	312.065112716860	1154.197743756341	199.646570784365	380.281672174878	976.578660772121	386.707786005443	591.399733200727	856.812802771867	342.110110522484	650.293494861683	845.886779634144	234.932748273092	595.538340005293	644.907462458200	154.112526290761	564.925476920101	820.935887694154	120.879765389756	603.515388031106	712.073010413748	100.121236562233	634.165558572800	899.117560573412	31.447119894433	620.613124052185	1044.544228195816	37.921938617221	426.959976549971	1114.780064418216	36.177168484763	342.753451690371	1196.783077768979	98.796312087657	365.899034716755	1324.578354182480	51.695965062903	332.301004758271	896.624275267347	1093.501822072879	211.501133038759	846.345114732891	839.201396547704	236.337697368916	1175.710543532405	1121.950331665498	760.174036599193	1382.493225730762	1235.552004831810	685.410332994264	
38	8.574928571429	856.259827770330	1007.847935499141	484.075596504093	1029.849163092859	1425.162440484313	294.559415950932	1140.253651697602	1357.911191593568	451.701465720060	1068.070136215649	1439.930540724380	627.007330006666	1028.394651776940	1490.146186613251	450.078790485544	1079.211372188591	935.767956049738	600.075516463341	1068.851870315360	952.716678773681	326.563667238264	1100.553047120788	726.504120539422	581.316795445350	1008.165784615612	623.513501761582	642.286392885763	1085.319203893385	558.672070305759	570.304817543956	1066.642234105254	451.151067423704	588.026871019102	1137.900798748055	763.950067424093	358.150472673141	1066.735588820342	636.167592771934	296.777937758410	1163.935854802076	571.288873891724	358.767115931723	1174.819973021091	502.148933105553	367.046928275353	1155.691007512130	427.523778487569	359.282442047544	1078.514453150701	303.531476335900	311.444653580663	1146.103827645765	199.365971283940	380.090385264071	987.351363404462	387.911084927265	590.209613054344	865.691340438508	348.165122307821	648.926456753989	850.765084215863	241.369292771789	594.910648002499	647.428894960697	171.102471548069	563.898168504412	820.815950580994	127.040225725432	603.676228610433	710.736473366897	112.846109700516	633.443437007650	892.609485889538	30.904909528158	620.968349252507	1035.489351462614	37.850359861475	426.856781245111	1105.706289626555	36.110057959650	342.666185959102	1187.746760885420	98.673898028006	365.903049646319	1315.519067184668	51.643029223247	332.202185025622	903.147934519298	1092.396462252598	207.058491720724	860.230889961876	836.588406948621	230.768106848064	1163.418188765208	1119.293433542129	759.830032002998	1376.148062223147	1222.880985850223	686.831006697181	
39	8.586142857143	855.132878070867	1008.829442727579	481.523079545467	1030.626703579790	1426.354187965209	292.440641669664	1139.964947318474	1359.104014590696	450.272421619196	1066.610690611937	1441.161731993738	625.114285113798	1028.088844103152	1491.314109643912	447.857948941230	1078.219224934841	937.055903577413	598.004221872956	1068.276643771770	954.083571404256	324.612591380600	1106.114548748443	729.740282935427	578.986815430789	1017.814553776071	624.141132911238	640.479420221382	1097.092532977790	561.169299239530	568.375450576502	1080.307827626618	452.041593380182	586.683721131964	1135.939294187900	763.042704102399	354.769544523692	1062.175483586699	636.159478157879	295.364847516451	1158.680604457424	570.342003610342	357.357664287720	1168.669086284338	501.493472845154	366.335908187717	1149.212333097409	427.068669226071	358.558501949047	1071.367965877695	303.485916667528	310.903472902237	1137.945177477089	199.042401460406	379.961170868683	998.870019785586	389.527161877782	588.740724074585	875.537965296045	354.506538995936	647.315146419828	856.754685649709	248.214133425444	593.997031160014	651.652010307844	188.218943425671	562.515993263842	821.904225967307	133.814640001105	603.498076718365	710.989711401842	126.143908492717	632.489494992875	887.351117658736	31.015056355994	621.315763453895	1026.379794850359	37.772002726202	426.792763301839	1096.590761614684	36.015990897393	342.627256495637	1178.705073993883	98.502578991334	365.964273243422	1306.451094393417	51.447314767379	332.180024195838	909.873849185144	1091.222314679946	202.534282651812	875.050935342353	834.008273559081	225.089293581131	1150.521552807666	1116.650734652736	759.238834777641	1369.321770270045	1208.896444081780	688.462719447876	
40	8.597357142857	853.855689380304	1009.566263920758	479.147531828785	1031.310279100610	1427.371736164493	290.446585461230	1139.513310907595	1360.125476796202	449.010124837011	1064.891612102541	1442.146160030223	623.391512571421	1027.667195939783	1492.316680248788	445.780843985452	1077.152778456848	938.211336398920	596.102518502391	1067.488124492485	955.292786287453	322.782751788710	1111.668140305668	733.270000525848	576.608013164960	1027.699492621790	625.154406152376	638.666297078443	1108.892279055510	564.212718349120	566.251320099770	1094.276892406105	453.610369390978	584.977309177651	1133.685314808345	762.044818910600	351.828852844559	1057.768531263836	636.176575681538	293.999907633121	1153.422493004460	569.442761756246	356.200080519299	1162.508330030621	500.804119811925	365.700399817631	1142.718643904493	426.576591158256	357.903440704807	1064.230871113910	303.400194825354	310.389344623107	1129.783851262832	198.691091505390	379.875821286592	1010.961575386760	391.596143707984	587.035245103188	886.180974144362	361.049833309812	645.483127293656	863.830373627684	255.319344445059	592.829422941501	657.516309119070	204.915524207285	560.823676763779	824.324314102066	140.986508153701	602.934566909229	712.956845951465	139.559022857855	631.310616487137	883.714457963434	31.979799257964	621.581225260497	1017.249250771657	37.699272691958	426.747460145732	1087.465038754743	35.912350079943	342.613354032118	1169.681837296430	98.307331009696	366.055983780593	1297.396237922382	51.154223221237	332.207775393070	916.824751627935	1089.976035480280	197.955243260134	890.765585788204	831.528587946081	219.347647409049	1137.128235441288	1114.047741725040	758.367297770809	1361.914654448167	1193.606803068589	690.299535389472	
41	8.608571428571	852.464461240743	1010.079252042170	476.955519565422	1031.868811302097	1428.221734322732	288.592437904011	1138.904382693777	1360.987776666431	447.908594250233	1062.954442259878	1442.891538909094	621.849425428612	1027.137286377323	1493.165772324318	443.868269738166	1076.037537370255	939.243814878777	594.331463300403	1066.502695661264	956.364728348123	321.043243224922	1117.073566863032	737.087601884073	574.133491527054	1037.671148896127	626.607981225707	636.846183725204	1120.528901875700	567.830088233968	563.931675367284	1108.372642594232	455.889542950853	582.970916063297	1131.199579827384	761.048489185163	349.355224672554	1053.581763885909	636.241372247857	292.668053129964	1148.236575055621	568.615573871759	355.248738518530	1156.420020605299	500.099828235194	365.119289755689	1136.287353786840	426.057255713158	357.306104201161	1057.168055896980	303.297210600392	309.875286299640	1121.663888150287	198.324450461622	379.817290191056	1023.468798719189	394.143382446504	585.151203884139	897.460928125339	367.686649597198	643.473880077023	871.963648580429	262.510438141134	591.454057951258	664.914031177830	220.651689561915	558.893358140847	828.195961558618	148.303572722707	601.967469898079	716.721466074095	152.604786297003	629.930667967158	882.076987148396	33.917358679128	621.689239883211	1008.123154374993	37.639820496770	426.705888521755	1078.351330214291	35.813145458553	342.606461335061	1160.689517301538	98.110712077630	366.156297072399	1288.366756648424	50.811381655439	332.259125385241	924.034043038694	1088.676129592325	193.347842450659	907.343087742707	829.236400872473	213.590377607774	1123.349895796692	1111.519302130912	757.191525842446	1353.817607038719	1177.038108116328	692.328333263760	
